<svg xmlns="http://www.w3.org/2000/svg" data-name="Layer 1" viewBox="0 0 512 512"><path fill="#fed402" d="M234.37,382.94l40.39-161.61c12.8-51.22,74.08-71.61,114.6-38.14l77.06,63.68-64.85-22.42c-16.57-1.91-25.88,2.2-31.23,6.15-25.85,19.06-22.22,80.45,13.2,152.34Z"/><ellipse cx="467.78" cy="239.33" fill="#97d729" rx="36.72" ry="37.03"/><path fill="#97d729" d="M277.63,382.94,237.24,221.33c-12.8-51.22-74.08-71.61-114.6-38.14L45.58,246.87l64.85-22.42c16.57-1.91,25.88,2.2,31.23,6.15,25.85,19.06,22.22,80.45-13.2,152.34Z"/><ellipse cx="44.22" cy="239.33" fill="#fed402" rx="36.72" ry="37.03"/><path fill="#8bc727" d="M237.24,221.33a71.18,71.18,0,0,0-38.74-47.55,285.05,285.05,0,0,1-5.43,76.73,286.5,286.5,0,0,1-41.69,99.58l-21.69,32.85H277.63Z"/><path fill="#fac600" d="M355.62,382.94l0-16.38a422.44,422.44,0,0,0-26.93-147.92,423.4,423.4,0,0,0-18.87-43,71.11,71.11,0,0,0-35,45.65L234.37,382.94Z"/><path fill="#fd4755" d="M176.42,366.63a318,318,0,0,0,46-110c15.56-74.25.27-135.34-9.26-164.72a395,395,0,0,1,87.39,137.24,394.08,394.08,0,0,1,25,137.45Z"/><path fill="#fb2b3a" d="M300.56,229.18A395,395,0,0,0,213.17,91.94c2.58,8,5.59,18.3,8.29,30.57a392.72,392.72,0,0,1,49.1,91.67,389.84,389.84,0,0,1,15.27,51c10,44.26-23.48,86.42-68.87,86.42H185.74c-3.23,5.53-6.37,10.53-9.32,15H325.58A394.08,394.08,0,0,0,300.56,229.18Z"/><ellipse cx="212.78" cy="89.33" fill="#af66da" rx="36.72" ry="37.03"/><path fill="#9857bd" d="M228.83,56a37.45,37.45,0,0,1,1.3,9.77,36.88,36.88,0,0,1-36.72,37,36.34,36.34,0,0,1-16-3.72A36.77,36.77,0,1,0,228.83,56Z"/><path fill="#8bc727" d="M483.83,206a37.45,37.45,0,0,1,1.3,9.77,36.88,36.88,0,0,1-36.72,37,36.34,36.34,0,0,1-16.05-3.72A36.77,36.77,0,1,0,483.83,206Z"/><path fill="#fac600" d="M60.26,206a37,37,0,0,1-35.41,46.8,36.31,36.31,0,0,1-16-3.72A36.77,36.77,0,1,0,60.26,206Z"/><rect width="312.97" height="76.9" x="99.51" y="366.63" fill="#af66da" rx="20"/><path fill="#9857bd" d="M392.49,366.63H381.83a20.1,20.1,0,0,1,.66,5h0a56.91,56.91,0,0,1-56.9,56.9H100.17a20,20,0,0,0,19.34,15h273a20,20,0,0,0,20-20v-36.9A20,20,0,0,0,392.49,366.63Z"/></svg>